<?xml version="1.0" standalone="no"?>
<!DOCTYPE svg PUBLIC "-//W3C//DTD SVG 20010904//EN"
 "http://www.w3.org/TR/2001/REC-SVG-20010904/DTD/svg10.dtd">
<svg version="1.0" xmlns="http://www.w3.org/2000/svg"
 width="400.000000pt" height="400.000000pt" viewBox="0 0 400.000000 400.000000"
 preserveAspectRatio="xMidYMid meet">
<metadata>
Created by potrace 1.14, written by Peter Selinger 2001-2017
</metadata>
<g transform="translate(0.000000,400.000000) scale(0.100000,-0.100000)"
fill="#000000" stroke="none">
<path d="M1917 3963 c-3 -5 -36 -9 -72 -8 -37 0 -69 -3 -71 -7 -3 -4 -30 -8
-60 -8 -30 0 -54 -4 -54 -8 0 -5 -12 -8 -27 -7 -16 1 -32 -1 -38 -5 -11 -8
-65 -20 -102 -22 -13 -1 -23 -6 -23 -10 0 -4 -9 -8 -19 -8 -11 0 -22 -4 -26
-9 -3 -6 -14 -8 -25 -6 -11 2 -20 1 -20 -3 0 -9 -44 -28 -85 -38 -16 -4 -42
-16 -57 -26 -16 -11 -28 -17 -28 -14 0 8 -174 -86 -178 -96 -2 -4 -10 -8 -18
-8 -8 0 -17 -7 -20 -15 -4 -8 -15 -15 -25 -15 -10 0 -19 -5 -19 -12 0 -6 -3
-9 -6 -5 -3 3 -16 -3 -28 -14 -50 -45 -94 -79 -102 -79 -5 0 -22 -16 -39 -35
-16 -19 -34 -35 -40 -35 -13 0 -155 -142 -155 -155 0 -6 -19 -29 -42 -51 -24
-22 -52 -56 -63 -77 -11 -20 -22 -37 -25 -37 -3 0 -16 -18 -30 -40 -14 -22
-29 -40 -33 -40 -5 0 -7 -7 -3 -15 3 -8 1 -15 -4 -15 -6 0 -10 -7 -10 -15 0
-8 -5 -15 -10 -15 -10 0 -27 -34 -28 -54 0 -5 -4 -12 -10 -15 -14 -9 -64 -103
-58 -109 3 -2 -5 -19 -17 -36 -12 -17 -21 -32 -19 -34 1 -1 -5 -16 -13 -32 -9
-17 -12 -30 -8 -30 4 0 2 -5 -5 -12 -7 -7 -12 -22 -12 -35 0 -13 -5 -23 -11
-23 -6 0 -8 -9 -4 -20 4 -11 2 -20 -4 -20 -6 0 -11 -11 -11 -25 0 -14 -5 -25
-11 -25 -6 0 -8 -13 -5 -35 3 -19 2 -35 -3 -35 -9 0 -20 -50 -23 -107 -1 -18
-6 -33 -10 -33 -4 0 -8 -27 -8 -60 0 -33 -4 -60 -10 -60 -6 0 -10 -73 -10
-200 0 -127 4 -200 10 -200 6 0 10 -27 10 -60 0 -33 4 -60 10 -60 5 0 7 -18 5
-40 -2 -22 0 -42 5 -45 6 -4 10 -19 10 -35 0 -16 4 -31 9 -34 5 -4 8 -14 6
-24 -1 -9 2 -23 7 -29 6 -7 8 -20 4 -28 -3 -9 1 -18 10 -22 8 -3 13 -11 10
-19 -6 -15 15 -74 27 -74 4 0 5 -4 2 -10 -3 -5 2 -24 12 -42 9 -18 17 -37 18
-43 1 -17 50 -115 57 -115 4 0 5 -7 2 -15 -4 -8 -1 -15 5 -15 6 0 11 -7 11
-15 0 -8 5 -15 10 -15 6 0 9 -3 9 -7 -3 -14 23 -73 31 -73 4 0 10 -9 13 -20 3
-11 12 -20 21 -20 10 0 13 -6 9 -16 -4 -10 0 -20 10 -26 10 -5 17 -16 17 -23
0 -8 4 -15 9 -15 5 0 13 -10 17 -22 4 -12 20 -33 35 -47 16 -14 29 -30 29 -36
0 -6 14 -24 31 -41 17 -16 44 -47 60 -68 16 -21 29 -35 29 -31 0 5 37 -27 83
-70 123 -117 133 -125 145 -125 6 0 20 -12 31 -26 11 -14 25 -23 31 -19 5 3
10 1 10 -4 0 -6 7 -11 15 -11 8 0 15 -4 15 -8 0 -9 53 -37 57 -30 1 1 12 -7
25 -19 13 -12 46 -32 73 -45 28 -13 75 -37 105 -53 30 -16 60 -29 65 -30 6 -1
24 -7 40 -15 17 -7 36 -12 43 -11 6 1 12 -2 12 -7 0 -6 15 -12 33 -15 42 -7
60 -11 72 -18 12 -8 87 -23 98 -21 4 1 20 -4 35 -11 15 -7 35 -12 45 -10 9 3
17 0 17 -4 0 -12 38 -14 323 -19 125 -3 227 -1 227 3 0 4 16 8 35 8 19 0 35
-4 35 -9 0 -5 7 -3 15 4 8 6 19 9 25 5 5 -3 10 -2 10 4 0 5 11 8 25 6 14 -1
33 3 42 10 9 7 23 11 30 8 7 -3 19 0 27 6 8 7 18 11 22 10 23 -4 35 2 28 14
-6 9 -5 9 8 0 8 -7 18 -10 22 -6 3 4 13 8 21 10 8 2 21 4 29 6 8 2 21 9 30 16
12 10 16 10 16 2 0 -8 6 -7 16 3 19 19 28 21 18 4 -6 -9 -3 -9 9 0 9 8 21 11
26 7 7 -4 8 1 4 12 -3 10 -3 15 2 11 4 -4 15 -2 23 5 13 10 14 9 8 -1 -7 -11
-4 -11 13 0 12 7 21 16 21 20 0 5 4 8 10 8 5 0 8 -6 6 -12 -1 -7 -1 -10 1 -5
3 4 11 7 19 7 9 0 13 4 9 9 -7 12 31 24 47 15 7 -4 10 -4 6 1 -9 10 14 33 38
37 23 4 44 20 38 30 -3 4 5 5 16 3 11 -2 18 0 15 5 -3 5 4 11 15 15 11 3 20
11 20 16 0 5 9 9 20 9 11 0 20 5 20 11 0 5 4 8 9 4 5 -3 16 4 24 15 7 11 17
17 20 13 4 -3 7 -1 7 6 0 8 7 11 15 7 8 -3 14 -2 14 2 -3 20 3 23 19 11 15
-12 16 -12 5 2 -16 19 2 40 26 32 9 -4 13 -3 9 1 -9 10 48 66 68 66 8 0 12 5
9 10 -6 9 8 14 27 11 5 0 7 5 5 12 -1 6 4 11 10 10 7 -2 12 0 12 5 -3 20 3 23
19 11 15 -12 16 -12 4 2 -10 13 -8 21 13 43 13 14 31 26 40 26 9 0 14 4 10 9
-3 6 3 14 12 20 10 5 15 13 11 17 -10 9 32 45 43 38 5 -3 6 2 3 10 -3 9 3 19
16 26 13 7 19 17 16 26 -3 8 -2 13 3 10 4 -3 23 17 42 44 18 27 37 46 43 43 5
-4 6 -1 2 6 -5 7 -2 20 6 29 8 9 23 34 33 56 11 21 26 41 33 43 11 5 11 7 0
14 -10 7 -10 9 0 9 6 0 12 7 12 15 0 8 5 15 11 15 6 0 9 6 6 13 -2 6 5 24 15
40 11 15 16 27 13 27 -3 0 2 12 13 28 11 15 20 31 20 35 0 4 6 22 13 40 7 18
13 37 13 43 1 6 8 21 17 35 9 13 15 32 13 42 -1 9 2 17 7 17 5 0 9 13 9 29 0
17 5 33 11 36 6 4 8 13 5 21 -3 7 -1 16 4 19 6 4 10 19 10 36 0 16 4 29 9 29
5 0 8 15 7 33 -2 17 0 37 4 42 10 13 20 83 24 170 1 39 6 78 10 87 5 10 5 43
2 75 -3 32 -7 106 -8 166 -1 59 -5 107 -10 107 -4 0 -8 29 -8 63 0 35 -3 67
-7 71 -7 7 -12 26 -17 66 -1 14 -8 35 -14 46 -6 12 -8 24 -5 28 6 5 -2 26 -28
78 -5 10 -6 24 -3 33 3 8 1 15 -5 15 -6 0 -11 8 -11 18 0 10 -3 22 -7 26 -4 4
-8 13 -8 19 0 7 -13 38 -29 70 -15 32 -29 63 -31 70 -10 39 -19 56 -31 61 -8
3 -14 12 -14 21 0 8 -5 15 -11 15 -5 0 -8 4 -5 9 3 5 -5 25 -19 45 -14 20 -25
41 -25 46 0 5 -6 13 -12 17 -13 8 -33 36 -45 63 -3 8 -17 25 -29 36 -13 12
-21 24 -18 27 3 2 -7 15 -21 28 -13 13 -25 28 -25 34 0 11 -248 263 -254 258
-2 -3 -21 12 -42 31 -69 64 -83 74 -104 81 -11 3 -20 11 -20 16 0 5 -7 9 -15
9 -8 0 -15 5 -15 11 0 6 -6 9 -13 6 -7 -3 -19 4 -25 14 -7 10 -18 19 -25 19
-7 0 -28 11 -46 24 -18 14 -39 22 -47 19 -8 -3 -14 0 -14 6 0 6 -7 11 -15 11
-8 0 -15 4 -15 10 0 5 -3 9 -7 8 -5 -1 -35 11 -68 27 -33 16 -66 28 -72 27 -7
-2 -13 1 -13 6 0 8 -34 19 -77 24 -7 1 -13 6 -13 11 0 5 -6 7 -14 4 -8 -3 -19
0 -25 7 -6 7 -22 12 -36 11 -14 -2 -27 1 -31 6 -3 5 -18 9 -35 9 -16 0 -29 4
-29 9 0 6 -10 8 -22 6 -12 -3 -26 -1 -32 4 -24 19 -459 50 -469 34z"/>
<path d="M3805 239 c-3 -4 2 -6 10 -5 21 3 28 13 10 13 -9 0 -18 -4 -20 -8z"/>
</g>
</svg>
